<svg id="visual" viewBox="0 0 900 600" width="900" height="600" xmlns="http://www.w3.org/2000/svg" xmlns:xlink="http://www.w3.org/1999/xlink" version="1.1"><rect x="0" y="0" width="900" height="600" fill="#ffffff"></rect><path d="M426 0L421.5 20C417 40 408 80 384.5 120C361 160 323 200 318 240C313 280 341 320 360.2 360C379.3 400 389.7 440 372.5 480C355.3 520 310.7 560 288.3 580L266 600L0 600L0 580C0 560 0 520 0 480C0 440 0 400 0 360C0 320 0 280 0 240C0 200 0 160 0 120C0 80 0 40 0 20L0 0Z" fill="#420e59" stroke-linecap="round" stroke-linejoin="miter"></path></svg>